<mxfile host="app.diagrams.net" modified="2022-04-06T07:58:01.531Z" agent="5.0 (Macintosh)" etag="VIqXLvhnfq49lQq7DUJr" version="17.2.2" type="github">
  <diagram id="C5RBs43oDa-KdzZeNtuy" name="Page-1">
    <mxGraphModel dx="1133" dy="737" grid="1" gridSize="10" guides="1" tooltips="1" connect="1" arrows="1" fold="1" page="1" pageScale="1" pageWidth="827" pageHeight="1169" math="0" shadow="0">
      <root>
        <mxCell id="WIyWlLk6GJQsqaUBKTNV-0" />
        <mxCell id="WIyWlLk6GJQsqaUBKTNV-1" parent="WIyWlLk6GJQsqaUBKTNV-0" />
        <mxCell id="1Y9c5fdJpAKJxREpqLxz-18" value="" style="group;sketch=1;fontColor=#0000CC;" vertex="1" connectable="0" parent="WIyWlLk6GJQsqaUBKTNV-1">
          <mxGeometry x="180" y="220" width="309" height="417" as="geometry" />
        </mxCell>
        <mxCell id="1Y9c5fdJpAKJxREpqLxz-0" value="用户接口层" style="rounded=0;whiteSpace=wrap;html=1;shadow=0;fontColor=#0000CC;labelBackgroundColor=#FFFFFF;labelBorderColor=none;fontStyle=1;fontSize=15;strokeWidth=2;sketch=1;" vertex="1" parent="1Y9c5fdJpAKJxREpqLxz-18">
          <mxGeometry x="103" width="206" height="62" as="geometry" />
        </mxCell>
        <mxCell id="1Y9c5fdJpAKJxREpqLxz-1" value="应用服务层" style="rounded=0;whiteSpace=wrap;html=1;shadow=0;fontColor=#0000CC;labelBackgroundColor=#FFFFFF;labelBorderColor=none;fontStyle=1;fontSize=15;strokeWidth=2;sketch=1;" vertex="1" parent="1Y9c5fdJpAKJxREpqLxz-18">
          <mxGeometry y="118" width="206" height="62" as="geometry" />
        </mxCell>
        <mxCell id="1Y9c5fdJpAKJxREpqLxz-12" style="edgeStyle=orthogonalEdgeStyle;rounded=0;orthogonalLoop=1;jettySize=auto;html=1;exitX=0.25;exitY=1;exitDx=0;exitDy=0;entryX=0.75;entryY=0;entryDx=0;entryDy=0;fontColor=#0000CC;labelBackgroundColor=#FFFFFF;labelBorderColor=none;fontStyle=1;fontSize=15;strokeWidth=2;shadow=0;sketch=1;" edge="1" parent="1Y9c5fdJpAKJxREpqLxz-18" source="1Y9c5fdJpAKJxREpqLxz-0" target="1Y9c5fdJpAKJxREpqLxz-1">
          <mxGeometry relative="1" as="geometry" />
        </mxCell>
        <mxCell id="1Y9c5fdJpAKJxREpqLxz-2" value="领域服务层" style="rounded=0;whiteSpace=wrap;html=1;shadow=0;fontColor=#0000CC;labelBackgroundColor=#FFFFFF;labelBorderColor=none;fontStyle=1;fontSize=15;strokeWidth=2;sketch=1;" vertex="1" parent="1Y9c5fdJpAKJxREpqLxz-18">
          <mxGeometry x="103" y="237" width="206" height="62" as="geometry" />
        </mxCell>
        <mxCell id="1Y9c5fdJpAKJxREpqLxz-16" style="edgeStyle=orthogonalEdgeStyle;rounded=0;orthogonalLoop=1;jettySize=auto;html=1;exitX=0.75;exitY=1;exitDx=0;exitDy=0;entryX=0.75;entryY=0;entryDx=0;entryDy=0;fontColor=#0000CC;labelBackgroundColor=#FFFFFF;labelBorderColor=none;fontStyle=1;fontSize=15;strokeWidth=2;shadow=0;sketch=1;" edge="1" parent="1Y9c5fdJpAKJxREpqLxz-18" source="1Y9c5fdJpAKJxREpqLxz-0" target="1Y9c5fdJpAKJxREpqLxz-2">
          <mxGeometry relative="1" as="geometry" />
        </mxCell>
        <mxCell id="1Y9c5fdJpAKJxREpqLxz-10" style="edgeStyle=orthogonalEdgeStyle;rounded=0;orthogonalLoop=1;jettySize=auto;html=1;exitX=0.75;exitY=1;exitDx=0;exitDy=0;entryX=0.25;entryY=0;entryDx=0;entryDy=0;fontColor=#0000CC;labelBackgroundColor=#FFFFFF;labelBorderColor=none;fontStyle=1;fontSize=15;strokeWidth=2;shadow=0;sketch=1;" edge="1" parent="1Y9c5fdJpAKJxREpqLxz-18" source="1Y9c5fdJpAKJxREpqLxz-1" target="1Y9c5fdJpAKJxREpqLxz-2">
          <mxGeometry relative="1" as="geometry" />
        </mxCell>
        <mxCell id="1Y9c5fdJpAKJxREpqLxz-4" value="基础设施层" style="rounded=0;whiteSpace=wrap;html=1;shadow=0;fontColor=#0000CC;labelBackgroundColor=#FFFFFF;labelBorderColor=none;fontStyle=1;fontSize=15;strokeWidth=2;sketch=1;" vertex="1" parent="1Y9c5fdJpAKJxREpqLxz-18">
          <mxGeometry y="355" width="206" height="62" as="geometry" />
        </mxCell>
        <mxCell id="1Y9c5fdJpAKJxREpqLxz-15" style="edgeStyle=orthogonalEdgeStyle;rounded=0;orthogonalLoop=1;jettySize=auto;html=1;entryX=1;entryY=0.5;entryDx=0;entryDy=0;exitX=1;exitY=0.5;exitDx=0;exitDy=0;fontColor=#0000CC;labelBackgroundColor=#FFFFFF;labelBorderColor=none;fontStyle=1;fontSize=15;strokeWidth=2;shadow=0;sketch=1;" edge="1" parent="1Y9c5fdJpAKJxREpqLxz-18" source="1Y9c5fdJpAKJxREpqLxz-0" target="1Y9c5fdJpAKJxREpqLxz-4">
          <mxGeometry relative="1" as="geometry">
            <mxPoint x="418" y="395" as="targetPoint" />
          </mxGeometry>
        </mxCell>
        <mxCell id="1Y9c5fdJpAKJxREpqLxz-17" style="edgeStyle=orthogonalEdgeStyle;rounded=0;orthogonalLoop=1;jettySize=auto;html=1;exitX=0.25;exitY=1;exitDx=0;exitDy=0;entryX=0.25;entryY=0;entryDx=0;entryDy=0;fontColor=#0000CC;labelBackgroundColor=#FFFFFF;labelBorderColor=none;fontStyle=1;fontSize=15;strokeWidth=2;shadow=0;sketch=1;" edge="1" parent="1Y9c5fdJpAKJxREpqLxz-18" source="1Y9c5fdJpAKJxREpqLxz-1" target="1Y9c5fdJpAKJxREpqLxz-4">
          <mxGeometry relative="1" as="geometry" />
        </mxCell>
        <mxCell id="1Y9c5fdJpAKJxREpqLxz-14" style="edgeStyle=orthogonalEdgeStyle;rounded=0;orthogonalLoop=1;jettySize=auto;html=1;exitX=0.25;exitY=1;exitDx=0;exitDy=0;entryX=0.75;entryY=0;entryDx=0;entryDy=0;fontColor=#0000CC;labelBackgroundColor=#FFFFFF;labelBorderColor=none;fontStyle=1;fontSize=15;strokeWidth=2;shadow=0;sketch=1;" edge="1" parent="1Y9c5fdJpAKJxREpqLxz-18" source="1Y9c5fdJpAKJxREpqLxz-2" target="1Y9c5fdJpAKJxREpqLxz-4">
          <mxGeometry relative="1" as="geometry" />
        </mxCell>
      </root>
    </mxGraphModel>
  </diagram>
</mxfile>
